<?xml version="1.0" encoding="UTF-8" standalone="no"?>
<svg width="202px" height="171px" viewBox="0 0 202 171" version="1.1" xmlns="http://www.w3.org/2000/svg" xmlns:xlink="http://www.w3.org/1999/xlink" xmlns:sketch="http://www.bohemiancoding.com/sketch/ns">
    <!-- Generator: Sketch 3.3.1 (12002) - http://www.bohemiancoding.com/sketch -->
    <title>loudspeaker copy</title>
    <desc>Created with Sketch.</desc>
    <defs></defs>
    <g id="Page-1" stroke="none" stroke-width="1" fill="none" fill-rule="evenodd" sketch:type="MSPage">
        <g id="loudspeaker-copy" sketch:type="MSLayerGroup" stroke="#884545">
            <g id="Group" sketch:type="MSShapeGroup">
                <path d="M43.2225962,101.137232 C41.2578424,95.8103402 44.0468795,89.9182454 49.4275805,87.9856706 L49.4275805,87.9856706 C54.8192525,86.0491554 60.7798243,88.7894929 62.7475676,94.1244897 L85.9967371,157.158241 C87.9614909,162.485133 85.1724538,168.377227 79.7917528,170.309802 L79.7917528,170.309802 C74.4000808,172.246317 68.4395091,169.50598 66.4717657,164.170983 L43.2225962,101.137232 L43.2225962,101.137232 Z" id="Rectangle-9" fill="#CCCCCC"></path>
                <rect id="Rectangle-3" fill="#EC5A48" x="12.8943764" y="27.6052934" width="77.8169745" height="62" rx="7"></rect>
                <rect id="Rectangle-3-Copy" fill="#F4BF13" x="10.3380369" y="27.6052934" width="18.6760739" height="62" rx="7"></rect>
                <circle id="Oval-3" fill="#F3BF13" cx="189.607595" cy="60.4706559" r="11.3924051"></circle>
                <path d="M89.7113509,34.4303797 L181.535381,4.69505178 L181.535381,114.24626 L89.7113509,84.5109321 L89.7113509,34.4303797 Z" id="Rectangle-5" fill="#7AC7C5"></path>
                <rect id="Rectangle-6" fill="#EC5A48" x="179.979041" y="0" width="10.8943764" height="118.941312" rx="7"></rect>
                <rect id="Rectangle-7" fill="#7AC7C5" x="0" y="47.5155351" width="10.8943764" height="24"></rect>
                <path d="M35.2394688,88.7710012 L69.4789375,88.7710012 L69.4789375,105.986191 L35.2394688,113.811277 L35.2394688,88.7710012 Z" id="Rectangle-8" fill="#EC5A48"></path>
                <path d="M80.0588304,107.144611 L88.0053197,129.110544 L75.5851418,132.74461 L67.6386526,110.778677 L80.0588304,107.144611 Z" id="Rectangle-10" fill="#F3BF13"></path>
            </g>
            <g id="Group" transform="translate(10.338037, 38.560414)" stroke-linecap="square" sketch:type="MSShapeGroup">
                <path d="M0.778169745,2.34752589 L7.0035277,2.34752589" id="Line"></path>
                <path d="M0.778169745,10.1726122 L7.0035277,10.1726122" id="Line-Copy"></path>
                <path d="M0.778169745,17.9976985 L7.0035277,17.9976985" id="Line-Copy-3"></path>
                <path d="M0.778169745,25.8227848 L7.0035277,25.8227848" id="Line-Copy-2"></path>
                <path d="M0.778169745,33.6478711 L7.0035277,33.6478711" id="Line-Copy-5"></path>
                <path d="M0.778169745,41.4729574 L7.0035277,41.4729574" id="Line-Copy-4"></path>
            </g>
            <g id="Group" transform="translate(36.795808, 38.560414)" sketch:type="MSShapeGroup">
                <path d="M25.5684345,2.34752589 L52.24854,2.34752589" id="Line-Copy-11" stroke-linecap="square"></path>
                <path d="M25.5684345,10.1726122 L52.24854,10.1726122" id="Line-Copy-6" stroke-linecap="square"></path>
                <path d="M25.5684345,17.9976985 L52.24854,17.9976985" id="Line-Copy-7" stroke-linecap="square"></path>
                <path d="M25.5684345,25.8227848 L52.24854,25.8227848" id="Line-Copy-8" stroke-linecap="square"></path>
                <path d="M25.5684345,33.6478711 L52.24854,33.6478711" id="Line-Copy-9" stroke-linecap="square"></path>
                <path d="M25.5684345,41.4729574 L52.24854,41.4729574" id="Line-Copy-10" stroke-linecap="square"></path>
                <ellipse id="Oval-1" cx="7.78169745" cy="9.39010357" rx="7.78169745" ry="7.82508631"></ellipse>
            </g>
        </g>
    </g>
</svg>